<?xml version="1.0" encoding="UTF-8"?>
<svg version="1.1" xmlns="http://www.w3.org/2000/svg" width="324" height="171">
<path d="M0 0 C6.23609578 5.30566585 9.67636861 11.74470091 10.75390625 19.85546875 C11.096739 30.88141235 8.64690968 38.26562788 1.1875 46.3359375 C-6.58090203 53.25858608 -15.92548434 53.70054134 -25.83691406 53.23730469 C-33.45064786 52.54161385 -39.79225747 47.61472297 -44.75 42.0625 C-49.8520562 34.17348246 -50.52738532 26.32722913 -49.75 17.0625 C-47.39593315 8.01214973 -42.94025034 2.32729589 -35.10546875 -2.64453125 C-24.09883295 -8.68631641 -10.14382214 -6.96644402 0 0 Z M-28.75 12.0625 C-32.25006922 15.65231458 -33.62062128 18.348232 -34 23.375 C-33.63716594 28.72680237 -32.16893949 31.78199363 -28.1875 35.375 C-24.08246283 38.21694881 -20.68813876 38.71661913 -15.75 38.0625 C-10.95321055 35.66410527 -8.11316288 32.87971665 -5.75 28.0625 C-4.91606763 23.32270073 -5.27837237 20.00575526 -7.4375 15.6875 C-10.53828292 12.16769236 -13.10630078 10.57387309 -17.5625 9.1875 C-21.82867642 9.02019896 -25.0312666 9.9850839 -28.75 12.0625 Z " fill="#039FD9" transform="translate(284.75,117.9375)"/>
<path d="M0 0 C0 4.29 0 8.58 0 13 C-0.99 12.835 -1.98 12.67 -3 12.5 C-8.06785338 11.77896395 -13.08852526 11.36284175 -18 13 C-18.33 14.65 -18.66 16.3 -19 18 C-18.38253906 18.15855469 -17.76507813 18.31710938 -17.12890625 18.48046875 C-1.81944799 22.69814294 -1.81944799 22.69814294 2.5625 29.125 C4.80197488 33.88388413 4.83854294 38.88047471 4 44 C1.65168507 50.23446441 -2.05563809 53.29801731 -8 56 C-10.86164929 56.8695898 -13.42072829 57.1283201 -16.40625 57.1328125 C-17.64568359 57.13474609 -17.64568359 57.13474609 -18.91015625 57.13671875 C-19.76480469 57.13285156 -20.61945313 57.12898438 -21.5 57.125 C-22.35464844 57.12886719 -23.20929688 57.13273437 -24.08984375 57.13671875 C-24.91613281 57.13542969 -25.74242187 57.13414062 -26.59375 57.1328125 C-27.34333984 57.13168457 -28.09292969 57.13055664 -28.86523438 57.12939453 C-31 57 -31 57 -35 56 C-35 51.38 -35 46.76 -35 42 C-33.88625 42.165 -32.7725 42.33 -31.625 42.5 C-21.99365338 43.79858465 -21.99365338 43.79858465 -13 41 C-13 39.68 -13 38.36 -13 37 C-14.62808594 36.36384766 -14.62808594 36.36384766 -16.2890625 35.71484375 C-32.16209453 29.3035504 -32.16209453 29.3035504 -35 23 C-36.60911487 17.3830897 -36.28973286 12.41209586 -34 7 C-25.03164562 -3.66507007 -12.63760651 -3.88849431 0 0 Z " fill="#039FD9" transform="translate(160,114)"/>
<path d="M0 0 C0 5.28 0 10.56 0 16 C-1.340625 15.67 -2.68125 15.34 -4.0625 15 C-11.04669078 13.47836596 -15.64462922 13.45281631 -22 17 C-22.66 17 -23.32 17 -24 17 C-24.309375 17.78375 -24.61875 18.5675 -24.9375 19.375 C-26 22 -26 22 -27 24 C-27.40226867 29.22949274 -26.9287695 32.60684575 -24 37 C-19.54836679 41.22905155 -15.73226374 41.42113921 -9.87890625 41.3359375 C-6.25931227 40.99207953 -6.25931227 40.99207953 0 39 C0 44.28 0 49.56 0 55 C-7.93699855 58.17479942 -18.92437211 58.75831226 -27.0625 55.4375 C-34.5913588 51.2937095 -40.84298349 45.55849616 -43.578125 37.2421875 C-45.5181442 26.93134474 -44.44093595 17.82793903 -38.75 9.078125 C-29.63556136 -3.03993546 -13.50078415 -4.07570842 0 0 Z " fill="#039FD9" transform="translate(73,114)"/>
<path d="M0 0 C0 5.28 0 10.56 0 16 C-1.340625 15.67 -2.68125 15.34 -4.0625 15 C-9.45161584 13.82588229 -13.90546908 13.21968456 -19.1875 15.1875 C-23.49278279 17.96201558 -25.53451036 20.35526994 -26.9375 25.3125 C-27.01415881 29.83536974 -26.41573261 33.14653034 -24 37 C-19.27971093 40.8532972 -15.63273616 41.43474895 -9.625 41.3359375 C-6.22056158 40.96714678 -6.22056158 40.96714678 0 39 C0 44.28 0 49.56 0 55 C-8.10600497 58.24240199 -18.17804143 58.45307752 -26.5 55.4375 C-34.38580796 51.65390527 -39.98524557 46.26076778 -43 38 C-45.81186793 28.8044319 -44.17706111 19.46404488 -40 11 C-36.18364601 4.37750337 -29.48952009 1.35703559 -22.625 -1.3125 C-14.77832671 -2.80066218 -7.61221559 -2.29802735 0 0 Z " fill="#039FD9" transform="translate(221,114)"/>
<path d="M0 0 C2.18640137 1.54211426 2.18640137 1.54211426 4 4 C4.39477964 6.7429642 4.54770407 9.08499207 4.51757812 11.82617188 C4.52809204 13.0024691 4.52809204 13.0024691 4.53881836 14.20252991 C4.55640644 16.79163142 4.5447733 19.3796376 4.53125 21.96875 C4.53394469 23.76949269 4.53782693 25.57023397 4.54284668 27.37097168 C4.54874281 31.14377708 4.54017519 34.91620351 4.52148438 38.68896484 C4.49869461 43.52476923 4.5118171 48.35968565 4.53577423 53.19545746 C4.55022919 56.91354054 4.54562764 60.63141314 4.53526306 64.34950256 C4.53259493 66.13249313 4.53586858 67.91550282 4.54518127 69.69847107 C4.55534211 72.19077157 4.53985371 74.68163468 4.51757812 77.17382812 C4.52567505 77.91057266 4.53377197 78.6473172 4.54211426 79.40638733 C4.4858418 82.80521894 4.22824478 84.69067048 2.18640137 87.45788574 C-1.01708577 89.7173717 -3.17789543 89.54601494 -7 89 C-9.18640137 87.45788574 -9.18640137 87.45788574 -11 85 C-11.39477964 82.2570358 -11.54770407 79.91500793 -11.51757812 77.17382812 C-11.5245874 76.38962997 -11.53159668 75.60543182 -11.53881836 74.79747009 C-11.55640644 72.20836858 -11.5447733 69.6203624 -11.53125 67.03125 C-11.53394469 65.23050731 -11.53782693 63.42976603 -11.54284668 61.62902832 C-11.54874281 57.85622292 -11.54017519 54.08379649 -11.52148438 50.31103516 C-11.49869461 45.47523077 -11.5118171 40.64031435 -11.53577423 35.80454254 C-11.55022919 32.08645946 -11.54562764 28.36858686 -11.53526306 24.65049744 C-11.53259493 22.86750687 -11.53586858 21.08449718 -11.54518127 19.30152893 C-11.55534211 16.80922843 -11.53985371 14.31836532 -11.51757812 11.82617188 C-11.52567505 11.08942734 -11.53377197 10.3526828 -11.54211426 9.59361267 C-11.4858418 6.19478106 -11.22824478 4.30932952 -9.18640137 1.54211426 C-5.98291423 -0.7173717 -3.82210457 -0.54601494 0 0 Z " fill="#039FD9" transform="translate(243,0)"/>
<path d="M0 0 C2.18640137 1.54211426 2.18640137 1.54211426 4 4 C4.39477964 6.7429642 4.54770407 9.08499207 4.51757812 11.82617188 C4.52809204 13.0024691 4.52809204 13.0024691 4.53881836 14.20252991 C4.55640644 16.79163142 4.5447733 19.3796376 4.53125 21.96875 C4.53394469 23.76949269 4.53782693 25.57023397 4.54284668 27.37097168 C4.54874281 31.14377708 4.54017519 34.91620351 4.52148438 38.68896484 C4.49869461 43.52476923 4.5118171 48.35968565 4.53577423 53.19545746 C4.55022919 56.91354054 4.54562764 60.63141314 4.53526306 64.34950256 C4.53259493 66.13249313 4.53586858 67.91550282 4.54518127 69.69847107 C4.55534211 72.19077157 4.53985371 74.68163468 4.51757812 77.17382812 C4.52567505 77.91057266 4.53377197 78.6473172 4.54211426 79.40638733 C4.4858418 82.80521894 4.22824478 84.69067048 2.18640137 87.45788574 C-1.01708577 89.7173717 -3.17789543 89.54601494 -7 89 C-9.18640137 87.45788574 -9.18640137 87.45788574 -11 85 C-11.39477964 82.2570358 -11.54770407 79.91500793 -11.51757812 77.17382812 C-11.5245874 76.38962997 -11.53159668 75.60543182 -11.53881836 74.79747009 C-11.55640644 72.20836858 -11.5447733 69.6203624 -11.53125 67.03125 C-11.53394469 65.23050731 -11.53782693 63.42976603 -11.54284668 61.62902832 C-11.54874281 57.85622292 -11.54017519 54.08379649 -11.52148438 50.31103516 C-11.49869461 45.47523077 -11.5118171 40.64031435 -11.53577423 35.80454254 C-11.55022919 32.08645946 -11.54562764 28.36858686 -11.53526306 24.65049744 C-11.53259493 22.86750687 -11.53586858 21.08449718 -11.54518127 19.30152893 C-11.55534211 16.80922843 -11.53985371 14.31836532 -11.51757812 11.82617188 C-11.52567505 11.08942734 -11.53377197 10.3526828 -11.54211426 9.59361267 C-11.4858418 6.19478106 -11.22824478 4.30932952 -9.18640137 1.54211426 C-5.98291423 -0.7173717 -3.82210457 -0.54601494 0 0 Z " fill="#039FD9" transform="translate(88,0)"/>
<path d="M0 0 C4.95 0 9.9 0 15 0 C15 18.81 15 37.62 15 57 C10.05 57 5.1 57 0 57 C0 38.19 0 19.38 0 0 Z " fill="#039FD9" transform="translate(91,113)"/>
<path d="M0 0 C2.82872622 2.54655084 3.01171757 4.1146906 3.40405273 7.95483398 C3.43055214 9.55173107 3.43933424 11.14898712 3.43359375 12.74609375 C3.4388356 13.59422134 3.44407745 14.44234894 3.44947815 15.31617737 C3.45589255 17.10733955 3.45456886 18.89854388 3.44604492 20.68969727 C3.43753963 23.42475723 3.46629491 26.15772468 3.49804688 28.89257812 C3.4996592 30.63541604 3.49908077 32.37825765 3.49609375 34.12109375 C3.51294472 35.34317787 3.51294472 35.34317787 3.53013611 36.58995056 C3.4812446 40.59010492 3.2834676 42.55066133 1.09619141 46.01782227 C-1 48 -1 48 -3.03515625 48.59375 C-8.54184921 48.33910524 -8.54184921 48.33910524 -10.71984863 46.72703552 C-12.28817845 44.61122221 -12.38964839 43.48299153 -12.41992188 40.86743164 C-12.43583374 40.03969742 -12.45174561 39.2119632 -12.46813965 38.35914612 C-12.46834106 37.46847946 -12.46854248 36.57781281 -12.46875 35.66015625 C-12.47636353 34.7416539 -12.48397705 33.82315155 -12.49182129 32.8768158 C-12.5026266 30.93426227 -12.50547364 28.99165063 -12.50097656 27.04907227 C-12.50000463 24.07665088 -12.54161165 21.10681385 -12.5859375 18.13476562 C-12.59114477 16.24740122 -12.59383269 14.36002784 -12.59375 12.47265625 C-12.61014526 11.58401382 -12.62654053 10.6953714 -12.64343262 9.77980042 C-12.57472371 3.64474236 -12.57472371 3.64474236 -9.68945312 0.40795898 C-5.99727272 -1.52493902 -3.9489307 -1.17005354 0 0 Z " fill="#039FD9" transform="translate(283,27)"/>
<path d="M0 0 C3.32361467 0.98477472 4.32887987 1.36894156 6.375 4 C6.76268005 5.8903656 6.76268005 5.8903656 6.77905273 8.04077148 C6.79173691 8.84848495 6.80442108 9.65619843 6.81748962 10.48838806 C6.81308617 11.79157738 6.81308617 11.79157738 6.80859375 13.12109375 C6.8138356 14.01740005 6.81907745 14.91370636 6.82447815 15.83717346 C6.8309011 17.73266565 6.82955781 19.62819769 6.82104492 21.52368164 C6.81254131 24.42341176 6.84128127 27.32116803 6.87304688 30.22070312 C6.87465914 32.06249941 6.87408087 33.90429918 6.87109375 35.74609375 C6.88232773 36.6128624 6.89356171 37.47963104 6.90513611 38.37266541 C6.83598759 44.34968822 6.83598759 44.34968822 4.56665039 47.55102539 C1.38086316 49.65725767 -0.89667566 49.47451401 -4.625 49 C-6.72858381 47.45737187 -7.46554159 46.31891683 -8.625 44 C-8.91009874 38.48965485 -8.93877238 32.97820519 -8.97509766 27.46118164 C-8.99165215 25.6173032 -9.01893569 23.77348881 -9.05712891 21.92993164 C-9.11195665 19.26935595 -9.13377979 16.61028363 -9.1484375 13.94921875 C-9.17110687 13.12822189 -9.19377625 12.30722504 -9.21713257 11.46134949 C-9.20133318 7.1707548 -8.98693341 5.48013842 -6.31884766 1.94067383 C-3.625 0 -3.625 0 0 0 Z " fill="#039FD8" transform="translate(201.625,26)"/>
<path d="M0 0 C2.82872622 2.54655084 3.01171757 4.1146906 3.40405273 7.95483398 C3.43055214 9.55173107 3.43933424 11.14898712 3.43359375 12.74609375 C3.4388356 13.59422134 3.44407745 14.44234894 3.44947815 15.31617737 C3.45589255 17.10733955 3.45456886 18.89854388 3.44604492 20.68969727 C3.43753963 23.42475723 3.46629491 26.15772468 3.49804688 28.89257812 C3.4996592 30.63541604 3.49908077 32.37825765 3.49609375 34.12109375 C3.51294472 35.34317787 3.51294472 35.34317787 3.53013611 36.58995056 C3.481252 40.5895 3.28425065 42.54974814 1.09619141 46.015625 C-1 48 -1 48 -3.03515625 48.62890625 C-8.4694165 48.45090543 -8.4694165 48.45090543 -10.71679688 46.54101562 C-12.66146204 42.6901642 -12.46775676 39.0400454 -12.46875 34.78125 C-12.47636353 33.88635864 -12.48397705 32.99146729 -12.49182129 32.06945801 C-12.50261277 30.17995999 -12.50547926 28.29040237 -12.50097656 26.40087891 C-12.50000328 23.50973269 -12.54165346 20.62123247 -12.5859375 17.73046875 C-12.59114394 15.8932347 -12.5938327 14.05599143 -12.59375 12.21875 C-12.61014526 11.35511841 -12.62654053 10.49148682 -12.64343262 9.60168457 C-12.57475299 3.64082772 -12.57475299 3.64082772 -9.68945312 0.42382812 C-5.99787428 -1.53053715 -3.95688947 -1.17241169 0 0 Z " fill="#039FD9" transform="translate(128,27)"/>
<path d="M0 0 C2.03492889 1.542733 2.88370152 2.40925625 3.38095093 4.93505859 C3.38333771 5.66547363 3.38572449 6.39588867 3.38818359 7.1484375 C3.40236832 8.39488037 3.40236832 8.39488037 3.4168396 9.66650391 C3.41076691 10.56030762 3.40469421 11.45411133 3.3984375 12.375 C3.40274277 13.75631104 3.40274277 13.75631104 3.40713501 15.16552734 C3.40917631 17.11231094 3.40364183 19.05911502 3.39111328 21.00585938 C3.37506056 23.98874699 3.39095972 26.97027961 3.41015625 29.953125 C3.40817383 31.843753 3.40433018 33.73438015 3.3984375 35.625 C3.40754654 36.96570557 3.40754654 36.96570557 3.4168396 38.33349609 C3.40738312 39.16445801 3.39792664 39.99541992 3.38818359 40.8515625 C3.38579681 41.58197754 3.38341003 42.31239258 3.38095093 43.06494141 C2.88152106 45.6018195 2.06597549 46.47379773 0 48 C-5.57392317 48.70779977 -5.57392317 48.70779977 -8 48 C-10.95196422 45.18624794 -12.24933198 43.0364047 -12.50170898 39.0234375 C-12.52123738 37.47408027 -12.51813352 35.92432354 -12.49609375 34.375 C-12.49754898 33.5504834 -12.49900421 32.7259668 -12.50050354 31.87646484 C-12.49884821 30.1383103 -12.48732794 28.40014054 -12.46655273 26.66210938 C-12.43759253 24.00847832 -12.44595183 21.35684628 -12.45898438 18.703125 C-12.45274642 17.010407 -12.44435503 15.31769529 -12.43359375 13.625 C-12.43652939 12.83528809 -12.43946503 12.04557617 -12.44248962 11.23193359 C-12.3646229 6.66292843 -11.86077772 3.62263189 -9 0 C-5.85000502 -1.57499749 -3.36459118 -0.70833498 0 0 Z " fill="#039FD9" transform="translate(50,27)"/>
<path d="M0 0 C3.82669024 0.0479192 3.82669024 0.0479192 6.0625 1.5625 C8.63834717 5.65355139 8.34352425 9.96658954 8.375 14.625 C8.395625 15.38039063 8.41625 16.13578125 8.4375 16.9140625 C8.46994725 21.5540196 8.04445356 24.43111883 5.125 28.25 C4.125 29.25 4.125 29.25 0.25 29.5 C-3.57669024 29.4520808 -3.57669024 29.4520808 -5.8125 27.9375 C-8.38834717 23.84644861 -8.09352425 19.53341046 -8.125 14.875 C-8.145625 14.11960937 -8.16625 13.36421875 -8.1875 12.5859375 C-8.21994725 7.9459804 -7.79445356 5.06888117 -4.875 1.25 C-3.875 0.25 -3.875 0.25 0 0 Z " fill="#039FD8" transform="translate(161.875,45.75)"/>
<path d="M0 0 C2.65278687 0.43352937 3.37002308 1.21488519 5.0078125 3.328125 C5.39599609 5.73242188 5.39599609 5.73242188 5.40625 8.546875 C5.41011719 9.56136719 5.41398437 10.57585938 5.41796875 11.62109375 C5.40636719 12.67941406 5.39476562 13.73773438 5.3828125 14.828125 C5.39441406 15.88644531 5.40601563 16.94476563 5.41796875 18.03515625 C5.41410156 19.04964844 5.41023438 20.06414062 5.40625 21.109375 C5.40286621 22.03814453 5.39948242 22.96691406 5.39599609 23.92382812 C4.9406545 26.74408223 4.26522369 27.63282232 2.0078125 29.328125 C-0.6967815 29.88431167 -3.26955573 29.75442434 -5.9921875 29.328125 C-8.66650239 27.51649233 -8.95139109 26.45051423 -9.9921875 23.328125 C-10.14073138 20.52293093 -10.22322954 17.75890373 -10.2421875 14.953125 C-10.2628125 14.19773437 -10.2834375 13.44234375 -10.3046875 12.6640625 C-10.33713475 8.0241054 -9.91164106 5.14700617 -6.9921875 1.328125 C-5.11954074 -0.54452176 -2.49458803 0.09205122 0 0 Z " fill="#039ED9" transform="translate(318.9921875,45.671875)"/>
<path d="M0 0 C1.87109375 0.29296875 1.87109375 0.29296875 3.80859375 1.60546875 C6.38444092 5.69652014 6.089618 10.00955829 6.12109375 14.66796875 C6.14171875 15.42335938 6.16234375 16.17875 6.18359375 16.95703125 C6.216041 21.59698835 5.79054731 24.47408758 2.87109375 28.29296875 C0.99844699 30.16561551 -1.62650572 29.52904253 -4.12109375 29.62109375 C-6.77388062 29.18756438 -7.49111683 28.40620856 -9.12890625 26.29296875 C-9.51708984 23.88867188 -9.51708984 23.88867188 -9.52734375 21.07421875 C-9.53121094 20.05972656 -9.53507813 19.04523438 -9.5390625 18 C-9.52746094 16.94167969 -9.51585937 15.88335937 -9.50390625 14.79296875 C-9.51550781 13.73464844 -9.52710938 12.67632812 -9.5390625 11.5859375 C-9.53326172 10.06419922 -9.53326172 10.06419922 -9.52734375 8.51171875 C-9.52395996 7.58294922 -9.52057617 6.65417969 -9.51708984 5.69726562 C-8.60915226 0.0737629 -4.90648992 -0.18905741 0 0 Z " fill="#039ED9" transform="translate(9.12890625,45.70703125)"/>
</svg>
