<?xml version="1.0" encoding="UTF-8"?>
<svg version="1.1" xmlns="http://www.w3.org/2000/svg" width="320" height="320">
<path d="M0 0 C105.6 0 211.2 0 320 0 C320 105.6 320 211.2 320 320 C214.4 320 108.8 320 0 320 C0 214.4 0 108.8 0 0 Z " fill="#000000" transform="translate(0,0)"/>
<path d="M0 0 C85.12801484 0 85.12801484 0 106 18 C119.44907503 33.94530487 123.17527584 50.10871961 123.1875 70.4375 C123.19974609 71.50548828 123.21199219 72.57347656 123.22460938 73.67382812 C123.25648646 91.06808984 117.86708941 110.42845219 105.70703125 123.390625 C76.19239212 151.21678363 38.94399088 145 0 145 C0 97.15 0 49.3 0 0 Z " fill="#FCFCFC" transform="translate(86,86)"/>
<path d="M0 0 C25.38630137 0 25.38630137 0 34.55078125 8.42578125 C41.86546221 16.03087138 43.48231144 25.34145425 43.44921875 35.578125 C43.41248047 37.39570313 43.41248047 37.39570313 43.375 39.25 C43.37371094 40.4771875 43.37242187 41.704375 43.37109375 42.96875 C43.31223143 49.01194829 43.11552566 54.32068559 41 60 C40.70480469 60.80566406 40.40960938 61.61132812 40.10546875 62.44140625 C36.1055956 71.68366633 31.20519274 76.08389258 22 80 C15.03580586 82.32139805 7.34090518 81 0 81 C0 54.27 0 27.54 0 0 Z " fill="#040404" transform="translate(125,117)"/>
<path d="M0 0 C6.2846206 3.7734297 11.0126954 9.57406644 13.1875 16.57421875 C14.94829402 24.32485672 12.44585032 30.9900691 8.33984375 37.5546875 C4.68477014 42.29915631 0.41109382 44.97877346 -5.375 46.5 C-13.83694144 47.5473289 -20.2674721 46.08475209 -27.0625 40.8125 C-32.21067784 36.18492441 -35.08627833 29.79142702 -35.6875 22.9375 C-35.59127136 16.41800973 -33.11624942 10.60782824 -29 5.625 C-20.60296362 -1.17260088 -10.55663575 -4.70796919 0 0 Z " fill="#85BC25" transform="translate(253.375,186.5)"/>
<path d="M0 0 C3.25710685 0.24126717 4.20269328 1.20269328 6.5625 3.5625 C10.81380115 9.04720333 12.83794451 15.05703117 12 22 C9.16 30.84 9.16 30.84 6 34 C6 32.35 6 30.7 6 29 C6.66 29 7.32 29 8 29 C8.27698721 26.43786831 8.52215772 23.87907631 8.75 21.3125 C8.83121094 20.59126953 8.91242188 19.87003906 8.99609375 19.12695312 C9.31030126 15.30409509 9.2609381 13.38451244 7.078125 10.16796875 C6.04945313 9.09482422 6.04945313 9.09482422 5 8 C4.67 7.01 4.34 6.02 4 5 C3.01 4.67 2.02 4.34 1 4 C0.3125 1.9375 0.3125 1.9375 0 0 Z " fill="#83A647" transform="translate(255,190)"/>
<path d="M0 0 C4.44973611 0.50854127 6.62493666 2.14417717 10 5 C13.64841765 7.43227843 16.67037088 7.41899637 21 7 C26.20570657 5.37171274 30.72947224 3.42623951 35 0 C35.66 0.33 36.32 0.66 37 1 C30.39768133 6.95819002 24.66511477 9.56897762 15.64453125 9.28515625 C9.08001398 8.57731318 4.67910327 5.33672986 0 1 C0 0.67 0 0.34 0 0 Z " fill="#7E9E4C" transform="translate(224,224)"/>
<path d="M0 0 C1.62760417 1.23697917 3.25520833 2.47395833 4.8828125 3.7109375 C9.7663861 6.68433102 14.23327214 7.2401373 19.875 7.125 C21.02742188 7.10695312 22.17984375 7.08890625 23.3671875 7.0703125 C24.23601562 7.04710937 25.10484375 7.02390625 26 7 C23.77267549 10.34098676 22.75137087 10.90203779 19 12 C18.01 11.67 17.02 11.34 16 11 C16 11.66 16 12.32 16 13 C13 12 13 12 11 10 C10.01 9.67 9.02 9.34 8 9 C8 8.34 8 7.68 8 7 C6.68 7 5.36 7 4 7 C1.27475835 4.98130248 0.71293214 3.22485192 0 0 Z " fill="#051102" transform="translate(224,225)"/>
<path d="M0 0 C0.66 0.33 1.32 0.66 2 1 C1.01 2.485 1.01 2.485 0 4 C-0.67338474 6.33406634 -0.67338474 6.33406634 -1.125 8.875 C-1.29257813 9.71804687 -1.46015625 10.56109375 -1.6328125 11.4296875 C-2.28623094 16.00361658 -2.06074361 19.4554241 -0.5 23.8125 C-0.2215625 24.60269531 0.056875 25.39289063 0.34375 26.20703125 C0.5603125 26.79871094 0.776875 27.39039063 1 28 C0.01 27.67 -0.98 27.34 -2 27 C-4.98237512 20.70387476 -6.31156676 15.07058334 -4.1328125 8.30859375 C-1.4657634 1.4657634 -1.4657634 1.4657634 0 0 Z " fill="#82A447" transform="translate(223,194)"/>
<path d="M0 0 C1.12148437 -0.01417969 2.24296875 -0.02835938 3.3984375 -0.04296875 C6.57384842 0.18384632 8.76734718 0.83359332 11.625 2.1875 C10.965 2.8475 10.305 3.5075 9.625 4.1875 C7.7890625 3.83203125 7.7890625 3.83203125 5.625 3.1875 C-1.14832534 2.46263536 -6.19482997 3.52055301 -12.34375 6.41015625 C-13.0140625 6.66667969 -13.684375 6.92320312 -14.375 7.1875 C-15.035 6.8575 -15.695 6.5275 -16.375 6.1875 C-15.27432004 5.37028283 -14.16930269 4.55890549 -13.0625 3.75 C-12.44761719 3.29753906 -11.83273438 2.84507812 -11.19921875 2.37890625 C-7.54205053 -0.00960832 -4.25320236 0.02433182 0 0 Z " fill="#8AAD48" transform="translate(242.375,184.8125)"/>
<path d="M0 0 C0.66 0.66 1.32 1.32 2 2 C1.505 3.155 1.01 4.31 0.5 5.5 C-2.04088362 12.32787211 -1.27093118 18.18720646 1 25 C0.01 24.67 -0.98 24.34 -2 24 C-5.0553135 17.43731132 -3.8672623 9.92637866 -3 3 C-2.01 2.67 -1.02 2.34 0 2 C0 1.34 0 0.68 0 0 Z " fill="#081602" transform="translate(220,195)"/>
<path d="M0 0 C0.66 0 1.32 0 2 0 C2.103125 0.639375 2.20625 1.27875 2.3125 1.9375 C2.539375 2.618125 2.76625 3.29875 3 4 C3.99 4.33 4.98 4.66 6 5 C6 6.98 6 8.96 6 11 C5.67 10.34 5.34 9.68 5 9 C4.34 9 3.68 9 3 9 C2.67 9.66 2.34 10.32 2 11 C1.34 10.34 0.68 9.68 0 9 C-0.99 9 -1.98 9 -3 9 C-2.01 6.03 -1.02 3.06 0 0 Z " fill="#040507" transform="translate(266,212)"/>
<path d="M0 0 C3.34008987 0.24741406 4.2550951 1.2550951 6.6875 3.6875 C9.02949064 6.65450041 9.72829542 9.19613588 10 13 C5.125 8.375 5.125 8.375 4 5 C3.01 4.67 2.02 4.34 1 4 C0.3125 1.9375 0.3125 1.9375 0 0 Z " fill="#8BB148" transform="translate(255,190)"/>
<path d="M0 0 C0.66 0.66 1.32 1.32 2 2 C-3.14285714 8.57142857 -3.14285714 8.57142857 -7 10 C-7.66 9.34 -8.32 8.68 -9 8 C-6.35039045 4.36905358 -3.98175544 2.10148204 0 0 Z " fill="#141414" transform="translate(160,184)"/>
<path d="M0 0 C1.32 0 2.64 0 4 0 C4.33 0.99 4.66 1.98 5 3 C5.66 3 6.32 3 7 3 C7 5.31 7 7.62 7 10 C6.34 10 5.68 10 5 10 C4.67 10.66 4.34 11.32 4 12 C2.68 8.04 1.36 4.08 0 0 Z " fill="#0A0F06" transform="translate(264,198)"/>
<path d="M0 0 C1.65 0 3.3 0 5 0 C5 0.66 5 1.32 5 2 C3.75264433 2.6509259 2.50198168 3.29551669 1.25 3.9375 C0.55390625 4.29714844 -0.1421875 4.65679687 -0.859375 5.02734375 C-2.90224433 5.95558182 -4.81115376 6.53166578 -7 7 C-7 5.35 -7 3.7 -7 2 C-4.50907189 0.75453595 -3.58919267 1.2232422 -1 2 C-0.67 1.34 -0.34 0.68 0 0 Z " fill="#080F0D" transform="translate(231,184)"/>
<path d="M0 0 C0.66 0.33 1.32 0.66 2 1 C1.61402985 3.79828356 1.19863427 4.8205884 -0.9375 6.75 C-3 8 -3 8 -5 8 C-5 8.66 -5 9.32 -5 10 C-6.875 10.625 -6.875 10.625 -9 11 C-9.66 10.34 -10.32 9.68 -11 9 C-10.45730469 8.68546875 -9.91460937 8.3709375 -9.35546875 8.046875 C-3.93281161 4.84458697 -3.93281161 4.84458697 0 0 Z " fill="#0A1804" transform="translate(262,222)"/>
<path d="M0 0 C5.875 3.625 5.875 3.625 7 7 C6.01 7.33 5.02 7.66 4 8 C3.54625 7.505 3.0925 7.01 2.625 6.5 C1.12364481 4.77390663 1.12364481 4.77390663 -1 5 C-0.67 3.35 -0.34 1.7 0 0 Z " fill="#E4E4E4" transform="translate(186,100)"/>
<path d="M0 0 C0.66 0 1.32 0 2 0 C2 0.66 2 1.32 2 2 C2.99 2.33 3.98 2.66 5 3 C2.82575883 5.50037734 1.26954202 6.43628586 -2 7 C-2 5.35 -2 3.7 -2 2 C-1.34 2 -0.68 2 0 2 C0 1.34 0 0.68 0 0 Z " fill="#EEEEEE" transform="translate(171,217)"/>
<path d="M0 0 C1.72880982 -0.05449838 3.45812712 -0.09301688 5.1875 -0.125 C6.15042969 -0.14820313 7.11335937 -0.17140625 8.10546875 -0.1953125 C11.12812778 0.0086456 13.26769985 0.73125368 16 2 C15.67 2.99 15.34 3.98 15 5 C14.01 4.525625 13.02 4.05125 12 3.5625 C8.00810505 1.83186252 4.31885418 1.37884686 0 1 C0 0.67 0 0.34 0 0 Z " fill="#0C1C04" transform="translate(241,184)"/>
<path d="M0 0 C0.66 0 1.32 0 2 0 C2.36923077 6.52307692 2.36923077 6.52307692 0.5 8.9375 C0.005 9.288125 -0.49 9.63875 -1 10 C-1.66 9.67 -2.32 9.34 -3 9 C-2.01 6.03 -1.02 3.06 0 0 Z " fill="#0F2004" transform="translate(266,212)"/>
<path d="M0 0 C0.66 0.33 1.32 0.66 2 1 C-4.63358779 6.87977099 -4.63358779 6.87977099 -8 7 C-8.66 6.34 -9.32 5.68 -10 5 C-8.27473958 4.28385417 -6.54947917 3.56770833 -4.82421875 2.8515625 C-2.73466068 1.93193308 -2.73466068 1.93193308 0 0 Z " fill="#89AE4B" transform="translate(259,224)"/>
<path d="M0 0 C2.64 0 5.28 0 8 0 C8.33 0.66 8.66 1.32 9 2 C8.34 2 7.68 2 7 2 C7 2.66 7 3.32 7 4 C5.35 3.67 3.7 3.34 2 3 C2 2.34 2 1.68 2 1 C1.34 0.67 0.68 0.34 0 0 Z " fill="#83B234" transform="translate(248,188)"/>
<path d="M0 0 C0.598125 0.20625 1.19625 0.4125 1.8125 0.625 C1.4825 1.615 1.1525 2.605 0.8125 3.625 C-0.8375 3.625 -2.4875 3.625 -4.1875 3.625 C-4.5175 2.965 -4.8475 2.305 -5.1875 1.625 C-2.1875 -0.375 -2.1875 -0.375 0 0 Z " fill="#070511" transform="translate(262.1875,228.375)"/>
<path d="M0 0 C0.99 0.33 1.98 0.66 3 1 C3.73046875 2.84765625 3.73046875 2.84765625 4.1875 5.0625 C4.34605469 5.79597656 4.50460938 6.52945313 4.66796875 7.28515625 C4.83232422 8.13400391 4.83232422 8.13400391 5 9 C4.01 8.67 3.02 8.34 2 8 C0.5522078 5.10441559 0 3.25811062 0 0 Z " fill="#84A849" transform="translate(219,213)"/>
<path d="M0 0 C1.74834267 2.622514 2.51529754 3.99484478 3 7 C2.67 7.66 2.34 8.32 2 9 C1.34 9 0.68 9 0 9 C-0.84454356 5.62182575 -1.10844919 3.32534757 0 0 Z " fill="#1B1B1B" transform="translate(205,182)"/>
<path d="M0 0 C3.24208567 0.35049575 4.61527704 0.56221181 6.8125 3.0625 C7.204375 3.701875 7.59625 4.34125 8 5 C4.75791433 4.64950425 3.38472296 4.43778819 1.1875 1.9375 C0.795625 1.298125 0.40375 0.65875 0 0 Z " fill="#89AD53" transform="translate(224,224)"/>
<path d="M0 0 C2.97 0.99 5.94 1.98 9 3 C7.02 3.99 7.02 3.99 5 5 C1.75 3.625 1.75 3.625 -1 2 C-0.67 1.34 -0.34 0.68 0 0 Z " fill="#1B1B1B" transform="translate(172,90)"/>
<path d="M0 0 C0.99 0 1.98 0 3 0 C2.49396008 2.16874252 2.00016187 3.99967627 1 6 C0.01 5.67 -0.98 5.34 -2 5 C-1.34 3.35 -0.68 1.7 0 0 Z " fill="#1C1C1C" transform="translate(201,193)"/>
<path d="M0 0 C0 0.66 0 1.32 0 2 C-3.465 3.485 -3.465 3.485 -7 5 C-7.33 4.34 -7.66 3.68 -8 3 C-5.53387212 -0.1151089 -3.89156016 -0.31553191 0 0 Z " fill="#0D1C02" transform="translate(236,184)"/>
</svg>
